<svg width="45" height="26" viewBox="0 0 45 26" fill="none" xmlns="http://www.w3.org/2000/svg">
<g clip-path="url(#clip0_477_136)">
<path d="M39.61 0.012001V0H39.498H38.91H35.61H26.507L24.45 2.545C24.261 2.781 23.975 2.918 23.673 2.918H15.915C15.612 2.918 15.327 2.781 15.138 2.545L13.081 0H4.99902C2.23702 0 -0.000976562 2.238 -0.000976562 5V17.168C-0.000976562 19.93 2.23702 22.166 4.99902 22.166H13.087H14.5C14.8235 22.166 16 22.166 16 22.166L19.5 22.155L23.5 22.166C23.804 22.166 24.7056 22.166 24.7056 22.166H26.501H35.609H38.909H39.497H39.609V22.155C42.318 22.092 44.497 19.889 44.497 17.168V5C44.498 2.278 42.319 0.074001 39.61 0.012001Z" fill="#007D5B"/>
<path d="M15.87 10.43V12.4595H18.609V13.895H15.87V17.0135H14V9H19.159V10.43H15.87Z" fill="white"/>
<path d="M21.8505 17.0135H19.9805V9H21.8505V17.0135Z" fill="white"/>
<path d="M30.1425 9V17.0135H29.1745C29.0315 17.0135 28.9105 16.9915 28.8115 16.9475C28.7162 16.8998 28.6208 16.8192 28.5255 16.7055L24.747 11.926C24.7617 12.069 24.7708 12.2083 24.7745 12.344C24.7818 12.476 24.7855 12.6007 24.7855 12.718V17.0135H23.1465V9H24.1255C24.2062 9 24.274 9.00367 24.329 9.011C24.384 9.01833 24.4335 9.033 24.4775 9.055C24.5215 9.07333 24.5637 9.10083 24.604 9.1375C24.6443 9.17417 24.6902 9.22367 24.7415 9.286L28.553 14.0985C28.5347 13.9445 28.5218 13.796 28.5145 13.653C28.5072 13.5063 28.5035 13.3688 28.5035 13.2405V9H30.1425Z" fill="white"/>
</g>
<defs>
<clipPath id="clip0_477_136">
<rect width="44.497" height="25.078" fill="white"/>
</clipPath>
</defs>
</svg>
