<svg width="97" height="45" viewBox="0 0 97 45" fill="none" xmlns="http://www.w3.org/2000/svg">
<g clip-path="url(#clip0_477_311)">
<path d="M22.2577 45H92.8009C95.1205 45 97 43.4837 97 41.6123V33.3694C97 31.6905 95.4841 30.3076 93.4996 30.0386H37.3745L35.652 31.7582C35.4933 31.9167 35.2523 32.0096 34.9995 32.0096H28.4842C28.2305 32.0096 27.9903 31.9167 27.8316 31.7582L26.1092 30.0386H19.3159C16.9971 30.0386 15.1168 28.5223 15.1168 26.6509V18.4067C15.1168 16.5346 16.9971 15.019 19.3159 15.019H24.3413H26.1049H26.1092L27.8316 16.7386C27.9903 16.8985 28.2322 16.9913 28.4842 16.9913H34.9995C35.2539 16.9913 35.4933 16.8985 35.652 16.7386L37.3745 15.019H37.3787H92.8009C95.1205 15.019 97 13.5026 97 11.6306V3.38769C97 1.51633 95.1205 0 92.8009 0H22.2619L20.5353 1.72432C20.3766 1.88286 20.1355 1.97569 19.8827 1.97569H13.3674C13.1138 1.97569 12.8736 1.88286 12.7157 1.72432L10.9882 0H4.1991C1.91647 0 0.0680258 1.47161 0.0109181 3.30299H0V3.38769V11.6306V33.3694V39.764V41.613C0 43.485 1.88036 45.0007 4.1991 45.0007H10.9924" fill="#F2AF31"/>
<path d="M84.3364 36.2198L86.8592 33.3511L89.4131 36.2103L84.3364 36.2198Z" fill="white"/>
<path d="M89.7902 36.1061L87.2363 33.2462C87.1649 33.1669 87.0196 33.1182 86.8601 33.1182C86.7005 33.1182 86.5544 33.1676 86.4838 33.2482L83.9593 36.1156C83.8972 36.1867 83.9047 36.2735 83.9803 36.3419C84.0576 36.411 84.192 36.4523 84.3364 36.4523C84.3373 36.4523 84.3381 36.4523 84.3381 36.4523L86.4553 36.4489V37.2986C86.4553 39.2173 83.6503 40.7804 80.2045 40.7804H66.4709C66.2391 40.7804 66.051 40.8834 66.051 41.0135C66.051 41.1422 66.2391 41.2486 66.4709 41.2486H80.2045C84.1139 41.2486 87.2951 39.4769 87.2951 37.2999V36.4489L89.4131 36.4442C89.5601 36.4442 89.6936 36.4015 89.7701 36.3331C89.8473 36.264 89.854 36.1786 89.7902 36.1061ZM87.2951 35.9801V35.7314C87.2951 35.6034 87.1053 35.4977 86.8752 35.4977C86.6426 35.4977 86.4553 35.602 86.4553 35.7314V35.9807L85.0091 35.9835L86.8609 33.8804L88.7354 35.978L87.2951 35.9801Z" fill="white"/>
<path d="M52.3089 10.47C52.5769 10.47 52.7949 10.436 52.9629 10.368C53.1349 10.3 53.2689 10.212 53.3649 10.104C53.4609 9.996 53.5269 9.874 53.5629 9.738C53.5989 9.602 53.6169 9.464 53.6169 9.324C53.6169 9.164 53.5949 9.02 53.5509 8.892C53.5109 8.764 53.4389 8.656 53.3349 8.568C53.2349 8.48 53.1009 8.412 52.9329 8.364C52.7649 8.316 52.5529 8.292 52.2969 8.292H50.8809V10.47H52.3089ZM50.8809 4.776V6.936H51.9369C52.1609 6.936 52.3629 6.92 52.5429 6.888C52.7229 6.856 52.8749 6.8 52.9989 6.72C53.1269 6.64 53.2229 6.53 53.2869 6.39C53.3549 6.25 53.3889 6.074 53.3889 5.862C53.3889 5.654 53.3629 5.482 53.3109 5.346C53.2589 5.206 53.1789 5.094 53.0709 5.01C52.9629 4.926 52.8249 4.866 52.6569 4.83C52.4929 4.794 52.2969 4.776 52.0689 4.776H50.8809ZM52.0689 3.258C52.6729 3.258 53.1869 3.314 53.6109 3.426C54.0349 3.538 54.3809 3.696 54.6489 3.9C54.9169 4.104 55.1109 4.352 55.2309 4.644C55.3549 4.936 55.4169 5.262 55.4169 5.622C55.4169 5.818 55.3889 6.008 55.3329 6.192C55.2769 6.372 55.1889 6.542 55.0689 6.702C54.9489 6.858 54.7949 7.002 54.6069 7.134C54.4189 7.266 54.1929 7.38 53.9289 7.476C54.5049 7.616 54.9309 7.842 55.2069 8.154C55.4829 8.466 55.6209 8.87 55.6209 9.366C55.6209 9.738 55.5489 10.084 55.4049 10.404C55.2609 10.724 55.0489 11.004 54.7689 11.244C54.4929 11.48 54.1509 11.666 53.7429 11.802C53.3349 11.934 52.8689 12 52.3449 12H48.8529V3.258H52.0689ZM59.2119 5.682C59.6839 5.682 60.1139 5.756 60.5019 5.904C60.8899 6.052 61.2219 6.264 61.4979 6.54C61.7779 6.816 61.9939 7.152 62.1459 7.548C62.3019 7.94 62.3799 8.382 62.3799 8.874C62.3799 9.37 62.3019 9.818 62.1459 10.218C61.9939 10.614 61.7779 10.952 61.4979 11.232C61.2219 11.508 60.8899 11.722 60.5019 11.874C60.1139 12.022 59.6839 12.096 59.2119 12.096C58.7359 12.096 58.3019 12.022 57.9099 11.874C57.5219 11.722 57.1859 11.508 56.9019 11.232C56.6219 10.952 56.4039 10.614 56.2479 10.218C56.0959 9.818 56.0199 9.37 56.0199 8.874C56.0199 8.382 56.0959 7.94 56.2479 7.548C56.4039 7.152 56.6219 6.816 56.9019 6.54C57.1859 6.264 57.5219 6.052 57.9099 5.904C58.3019 5.756 58.7359 5.682 59.2119 5.682ZM59.2119 10.716C59.6399 10.716 59.9539 10.566 60.1539 10.266C60.3579 9.962 60.4599 9.502 60.4599 8.886C60.4599 8.27 60.3579 7.812 60.1539 7.512C59.9539 7.212 59.6399 7.062 59.2119 7.062C58.7719 7.062 58.4499 7.212 58.2459 7.512C58.0419 7.812 57.9399 8.27 57.9399 8.886C57.9399 9.502 58.0419 9.962 58.2459 10.266C58.4499 10.566 58.7719 10.716 59.2119 10.716ZM68.6466 5.778V12H67.4946C67.2626 12 67.1106 11.896 67.0386 11.688L66.9306 11.328C66.8106 11.444 66.6866 11.55 66.5586 11.646C66.4306 11.738 66.2926 11.818 66.1446 11.886C66.0006 11.95 65.8426 12 65.6706 12.036C65.5026 12.076 65.3186 12.096 65.1186 12.096C64.7786 12.096 64.4766 12.038 64.2126 11.922C63.9526 11.802 63.7326 11.636 63.5526 11.424C63.3726 11.212 63.2366 10.962 63.1446 10.674C63.0526 10.386 63.0066 10.07 63.0066 9.726V5.778H64.8666V9.726C64.8666 10.034 64.9366 10.272 65.0766 10.44C65.2166 10.608 65.4226 10.692 65.6946 10.692C65.8986 10.692 66.0886 10.65 66.2646 10.566C66.4446 10.478 66.6186 10.36 66.7866 10.212V5.778H68.6466ZM74.2323 7.254C74.1763 7.322 74.1223 7.376 74.0703 7.416C74.0183 7.456 73.9443 7.476 73.8483 7.476C73.7563 7.476 73.6723 7.454 73.5963 7.41C73.5243 7.366 73.4423 7.318 73.3503 7.266C73.2583 7.21 73.1503 7.16 73.0263 7.116C72.9023 7.072 72.7483 7.05 72.5643 7.05C72.3363 7.05 72.1383 7.092 71.9703 7.176C71.8063 7.26 71.6703 7.38 71.5623 7.536C71.4543 7.692 71.3743 7.884 71.3223 8.112C71.2703 8.336 71.2443 8.59 71.2443 8.874C71.2443 9.47 71.3583 9.928 71.5863 10.248C71.8183 10.568 72.1363 10.728 72.5403 10.728C72.7563 10.728 72.9263 10.702 73.0503 10.65C73.1783 10.594 73.2863 10.534 73.3743 10.47C73.4623 10.402 73.5423 10.34 73.6143 10.284C73.6903 10.228 73.7843 10.2 73.8963 10.2C74.0443 10.2 74.1563 10.254 74.2323 10.362L74.7723 11.028C74.5803 11.248 74.3783 11.428 74.1663 11.568C73.9543 11.704 73.7363 11.812 73.5123 11.892C73.2923 11.968 73.0703 12.02 72.8463 12.048C72.6223 12.08 72.4043 12.096 72.1923 12.096C71.8123 12.096 71.4483 12.024 71.1003 11.88C70.7563 11.736 70.4523 11.528 70.1883 11.256C69.9283 10.98 69.7203 10.642 69.5643 10.242C69.4123 9.842 69.3363 9.386 69.3363 8.874C69.3363 8.426 69.4023 8.008 69.5343 7.62C69.6703 7.228 69.8683 6.89 70.1283 6.606C70.3923 6.318 70.7163 6.092 71.1003 5.928C71.4883 5.764 71.9363 5.682 72.4443 5.682C72.9323 5.682 73.3603 5.76 73.7283 5.916C74.0963 6.072 74.4283 6.3 74.7243 6.6L74.2323 7.254ZM77.1063 3.018V12H75.2463V3.018H77.1063ZM81.9835 8.142C81.9835 7.994 81.9635 7.85 81.9235 7.71C81.8875 7.57 81.8255 7.446 81.7375 7.338C81.6535 7.226 81.5415 7.136 81.4015 7.068C81.2615 7 81.0915 6.966 80.8915 6.966C80.5395 6.966 80.2635 7.068 80.0635 7.272C79.8635 7.472 79.7315 7.762 79.6675 8.142H81.9835ZM79.6435 9.222C79.7035 9.742 79.8615 10.12 80.1175 10.356C80.3735 10.588 80.7035 10.704 81.1075 10.704C81.3235 10.704 81.5095 10.678 81.6655 10.626C81.8215 10.574 81.9595 10.516 82.0795 10.452C82.2035 10.388 82.3155 10.33 82.4155 10.278C82.5195 10.226 82.6275 10.2 82.7395 10.2C82.8875 10.2 82.9995 10.254 83.0755 10.362L83.6155 11.028C83.4235 11.248 83.2155 11.428 82.9915 11.568C82.7715 11.704 82.5435 11.812 82.3075 11.892C82.0755 11.968 81.8415 12.02 81.6055 12.048C81.3735 12.08 81.1515 12.096 80.9395 12.096C80.5035 12.096 80.0935 12.026 79.7095 11.886C79.3295 11.742 78.9955 11.53 78.7075 11.25C78.4235 10.97 78.1975 10.622 78.0295 10.206C77.8655 9.79 77.7835 9.306 77.7835 8.754C77.7835 8.338 77.8535 7.944 77.9935 7.572C78.1375 7.2 78.3415 6.874 78.6055 6.594C78.8735 6.314 79.1955 6.092 79.5715 5.928C79.9515 5.764 80.3795 5.682 80.8555 5.682C81.2675 5.682 81.6435 5.746 81.9835 5.874C82.3275 6.002 82.6215 6.188 82.8655 6.432C83.1135 6.676 83.3055 6.976 83.4415 7.332C83.5815 7.684 83.6515 8.084 83.6515 8.532C83.6515 8.672 83.6455 8.786 83.6335 8.874C83.6215 8.962 83.5995 9.032 83.5675 9.084C83.5355 9.136 83.4915 9.172 83.4355 9.192C83.3835 9.212 83.3155 9.222 83.2315 9.222H79.6435ZM86.0722 6.738C86.2642 6.402 86.4842 6.138 86.7322 5.946C86.9842 5.754 87.2722 5.658 87.5962 5.658C87.8762 5.658 88.1042 5.724 88.2802 5.856L88.1602 7.224C88.1402 7.312 88.1062 7.372 88.0582 7.404C88.0142 7.436 87.9522 7.452 87.8722 7.452C87.8402 7.452 87.7982 7.45 87.7462 7.446C87.6942 7.442 87.6402 7.438 87.5842 7.434C87.5282 7.426 87.4702 7.42 87.4102 7.416C87.3542 7.408 87.3022 7.404 87.2542 7.404C86.9822 7.404 86.7642 7.476 86.6002 7.62C86.4402 7.764 86.3042 7.964 86.1922 8.22V12H84.3322V5.778H85.4362C85.5282 5.778 85.6042 5.786 85.6642 5.802C85.7282 5.818 85.7802 5.844 85.8202 5.88C85.8642 5.912 85.8962 5.956 85.9162 6.012C85.9402 6.068 85.9602 6.136 85.9762 6.216L86.0722 6.738Z" fill="white"/>
</g>
<defs>
<clipPath id="clip0_477_311">
<rect width="97" height="45" fill="white"/>
</clipPath>
</defs>
</svg>
