<svg width="98" height="34" viewBox="0 0 98 34" fill="none" xmlns="http://www.w3.org/2000/svg">
<path d="M93.7576 8.03761H67.5552C61.9765 4.84203 50.7826 0 34.1509 0C10.4879 0 0.909555 9.22295 0.0687207 10.0817H0V12.2679V14.3129V27.2856C0 29.6224 1.89972 31.5159 4.24235 31.5159H11.1005L12.8458 33.6691C13.0062 33.868 13.2497 33.9839 13.5059 33.9839H20.0875C20.3438 33.9839 20.5864 33.868 20.7468 33.6691L22.4921 31.5159H93.7576C96.1011 31.5159 98 29.6224 98 27.2856V12.2679C98 9.93195 96.1011 8.03761 93.7576 8.03761Z" fill="#C88330"/>
<path d="M20.291 17.2615C20.291 17.9462 20.1718 18.5788 19.9335 19.1595C19.6995 19.7358 19.368 20.2363 18.939 20.661C18.51 21.0813 17.9921 21.4107 17.3855 21.649C16.7831 21.883 16.1136 22 15.377 22H11.698V12.5295H15.377C16.1136 12.5295 16.7831 12.6487 17.3855 12.887C17.9921 13.1253 18.51 13.4547 18.939 13.875C19.368 14.2953 19.6995 14.7958 19.9335 15.3765C20.1718 15.9528 20.291 16.5812 20.291 17.2615ZM18.042 17.2615C18.042 16.7935 17.9813 16.371 17.86 15.994C17.7386 15.617 17.5631 15.2985 17.3335 15.0385C17.1081 14.7742 16.8308 14.5727 16.5015 14.434C16.1721 14.291 15.7973 14.2195 15.377 14.2195H13.908V20.31H15.377C15.7973 20.31 16.1721 20.2407 16.5015 20.102C16.8308 19.959 17.1081 19.7575 17.3335 19.4975C17.5631 19.2332 17.7386 18.9125 17.86 18.5355C17.9813 18.1585 18.042 17.7338 18.042 17.2615ZM25.22 17.8205C25.22 17.6602 25.1983 17.5042 25.1549 17.3525C25.1159 17.2008 25.0488 17.0665 24.9535 16.9495C24.8624 16.8282 24.7411 16.7307 24.5895 16.657C24.4378 16.5833 24.2536 16.5465 24.0369 16.5465C23.6556 16.5465 23.3566 16.657 23.1399 16.878C22.9233 17.0947 22.7803 17.4088 22.7109 17.8205H25.22ZM22.6849 18.9905C22.7499 19.5538 22.9211 19.9633 23.1984 20.219C23.4758 20.4703 23.8333 20.596 24.2709 20.596C24.505 20.596 24.7065 20.5678 24.8754 20.5115C25.0445 20.4552 25.194 20.3923 25.3239 20.323C25.4583 20.2537 25.5796 20.1908 25.6879 20.1345C25.8006 20.0782 25.9176 20.05 26.039 20.05C26.1993 20.05 26.3206 20.1085 26.4029 20.2255L26.988 20.947C26.78 21.1853 26.5546 21.3803 26.3119 21.532C26.0736 21.6793 25.8266 21.7963 25.5709 21.883C25.3196 21.9653 25.0661 22.0217 24.8104 22.052C24.5591 22.0867 24.3186 22.104 24.0889 22.104C23.6166 22.104 23.1724 22.0282 22.7564 21.8765C22.3448 21.7205 21.9829 21.4908 21.6709 21.1875C21.3633 20.8842 21.1184 20.5072 20.9364 20.0565C20.7588 19.6058 20.6699 19.0815 20.6699 18.4835C20.6699 18.0328 20.7458 17.606 20.8974 17.203C21.0534 16.8 21.2744 16.4468 21.5604 16.1435C21.8508 15.8402 22.1996 15.5997 22.6069 15.422C23.0186 15.2443 23.4823 15.1555 23.9979 15.1555C24.4443 15.1555 24.8516 15.2248 25.22 15.3635C25.5926 15.5022 25.9111 15.7037 26.1754 15.968C26.4441 16.2323 26.6521 16.5573 26.7994 16.943C26.9511 17.3243 27.0269 17.7577 27.0269 18.243C27.0269 18.3947 27.0204 18.5182 27.0075 18.6135C26.9945 18.7088 26.9706 18.7847 26.936 18.841C26.9013 18.8973 26.8536 18.9363 26.793 18.958C26.7366 18.9797 26.6629 18.9905 26.572 18.9905H22.6849ZM29.8003 20.167C29.9519 20.3317 30.1166 20.4487 30.2943 20.518C30.4719 20.5873 30.6583 20.622 30.8533 20.622C31.0396 20.622 31.2108 20.5852 31.3668 20.5115C31.5228 20.4378 31.6571 20.3208 31.7698 20.1605C31.8868 19.9958 31.9778 19.7835 32.0428 19.5235C32.1078 19.2635 32.1403 18.9472 32.1403 18.5745C32.1403 18.2192 32.1143 17.9202 32.0623 17.6775C32.0103 17.4348 31.9366 17.2398 31.8413 17.0925C31.7503 16.9408 31.6398 16.8325 31.5098 16.7675C31.3798 16.7025 31.2346 16.67 31.0743 16.67C30.7796 16.67 30.5369 16.7242 30.3463 16.8325C30.1556 16.9408 29.9736 17.099 29.8003 17.307V20.167ZM29.6768 16.0915C29.9411 15.8098 30.2401 15.5802 30.5738 15.4025C30.9118 15.2205 31.3126 15.1295 31.7763 15.1295C32.1273 15.1295 32.4523 15.2075 32.7513 15.3635C33.0503 15.5195 33.3081 15.7448 33.5248 16.0395C33.7414 16.3342 33.9104 16.696 34.0318 17.125C34.1574 17.5497 34.2203 18.0328 34.2203 18.5745C34.2203 19.0815 34.1488 19.5495 34.0058 19.9785C33.8671 20.4075 33.6699 20.7802 33.4143 21.0965C33.1629 21.4128 32.8596 21.6598 32.5043 21.8375C32.1533 22.0152 31.7633 22.104 31.3343 22.104C30.9833 22.104 30.6886 22.0542 30.4503 21.9545C30.2119 21.8548 29.9953 21.7205 29.8003 21.5515V24.1385H27.7853V15.2595H29.0333C29.2846 15.2595 29.4493 15.3722 29.5273 15.5975L29.6768 16.0915ZM38.4903 19.257C38.0873 19.2743 37.7558 19.309 37.4958 19.361C37.2358 19.413 37.03 19.478 36.8783 19.556C36.7266 19.634 36.6205 19.7228 36.5598 19.8225C36.5035 19.9222 36.4753 20.0305 36.4753 20.1475C36.4753 20.3772 36.5381 20.5397 36.6638 20.635C36.7895 20.726 36.9736 20.7715 37.2163 20.7715C37.4763 20.7715 37.7038 20.726 37.8988 20.635C38.0938 20.544 38.291 20.3967 38.4903 20.193V19.257ZM34.8633 16.1955C35.2706 15.8358 35.7213 15.5693 36.2153 15.396C36.7136 15.2183 37.2466 15.1295 37.8143 15.1295C38.2216 15.1295 38.5878 15.1967 38.9128 15.331C39.2421 15.461 39.5195 15.6452 39.7448 15.8835C39.9745 16.1175 40.15 16.397 40.2713 16.722C40.3926 17.047 40.4533 17.4023 40.4533 17.788V22H39.5303C39.3396 22 39.1945 21.974 39.0948 21.922C38.9995 21.87 38.9193 21.7617 38.8543 21.597L38.7113 21.2265C38.5423 21.3695 38.3798 21.4952 38.2238 21.6035C38.0678 21.7118 37.9053 21.805 37.7363 21.883C37.5716 21.9567 37.394 22.0108 37.2033 22.0455C37.017 22.0845 36.809 22.104 36.5793 22.104C36.2716 22.104 35.9921 22.065 35.7408 21.987C35.4895 21.9047 35.275 21.7855 35.0973 21.6295C34.924 21.4735 34.7896 21.2807 34.6943 21.051C34.599 20.817 34.5513 20.5483 34.5513 20.245C34.5513 20.0023 34.612 19.7575 34.7333 19.5105C34.8546 19.2592 35.0648 19.0317 35.3638 18.828C35.6628 18.62 36.0658 18.4467 36.5728 18.308C37.0798 18.1693 37.719 18.0913 38.4903 18.074V17.788C38.4903 17.3937 38.408 17.1098 38.2433 16.9365C38.083 16.7588 37.8533 16.67 37.5543 16.67C37.316 16.67 37.121 16.696 36.9693 16.748C36.8176 16.8 36.6811 16.8585 36.5598 16.9235C36.4428 16.9885 36.328 17.047 36.2153 17.099C36.1026 17.151 35.9683 17.177 35.8123 17.177C35.6736 17.177 35.5566 17.1423 35.4613 17.073C35.366 17.0037 35.288 16.9213 35.2273 16.826L34.8633 16.1955ZM43.3763 16.2995C43.5843 15.9355 43.8226 15.6495 44.0913 15.4415C44.3643 15.2335 44.6763 15.1295 45.0273 15.1295C45.3306 15.1295 45.5776 15.201 45.7683 15.344L45.6383 16.826C45.6166 16.9213 45.5798 16.9863 45.5278 17.021C45.4801 17.0557 45.413 17.073 45.3263 17.073C45.2916 17.073 45.2461 17.0708 45.1898 17.0665C45.1335 17.0622 45.075 17.0578 45.0143 17.0535C44.9536 17.0448 44.8908 17.0383 44.8258 17.034C44.7651 17.0253 44.7088 17.021 44.6568 17.021C44.3621 17.021 44.126 17.099 43.9483 17.255C43.775 17.411 43.6276 17.6277 43.5063 17.905V22H41.4913V15.2595H42.6873C42.787 15.2595 42.8693 15.2682 42.9343 15.2855C43.0036 15.3028 43.06 15.331 43.1033 15.37C43.151 15.4047 43.1856 15.4523 43.2073 15.513C43.2333 15.5737 43.255 15.6473 43.2723 15.734L43.3763 16.2995ZM48.6167 22.104C48.296 22.104 48.0122 22.0585 47.7652 21.9675C47.5225 21.8722 47.3167 21.74 47.1477 21.571C46.983 21.3977 46.8573 21.1897 46.7707 20.947C46.684 20.7043 46.6407 20.4335 46.6407 20.1345V16.6505H46.0687C45.9647 16.6505 45.8758 16.618 45.8022 16.553C45.7285 16.4837 45.6917 16.384 45.6917 16.254V15.4675L46.7642 15.2595L47.1607 13.615C47.2127 13.407 47.36 13.303 47.6027 13.303H48.6557V15.2725H50.3262V16.6505H48.6557V19.998C48.6557 20.154 48.6925 20.284 48.7662 20.388C48.8442 20.4877 48.9547 20.5375 49.0977 20.5375C49.1713 20.5375 49.232 20.531 49.2797 20.518C49.3317 20.5007 49.375 20.4833 49.4097 20.466C49.4487 20.4443 49.4833 20.427 49.5137 20.414C49.5483 20.3967 49.5873 20.388 49.6307 20.388C49.6913 20.388 49.739 20.4032 49.7737 20.4335C49.8127 20.4595 49.8517 20.5028 49.8907 20.5635L50.5017 21.519C50.2417 21.714 49.9492 21.8613 49.6242 21.961C49.2992 22.0563 48.9633 22.104 48.6167 22.104Z" fill="white"/>
</svg>
