<svg width="98" height="21" viewBox="0 0 98 21" fill="none" xmlns="http://www.w3.org/2000/svg">
<g clip-path="url(#clip0_477_112)">
<path d="M94.0323 0H86.5811H82.0184H80.5424H78.1619H76.5748H75.8686H75.7813H73.4007H73.0913H69.3887H65.8178H55.3703H21.0338L19.4023 2.13105C19.2516 2.32783 19.0246 2.44255 18.785 2.44255H12.6296C12.39 2.44255 12.163 2.32783 12.0123 2.13105L10.3808 0H3.96675C1.77583 0 -0.000862122 1.874 -0.000862122 4.18677V14.3748C-0.000862122 16.6876 1.77583 18.5616 3.96675 18.5616H10.3848L12.0123 20.6877C12.163 20.8853 12.3908 21 12.6296 21H18.785C19.0254 21 19.2516 20.8853 19.4023 20.6877L21.0299 18.5616H55.3687H65.8163H69.3871H73.0913H73.4007H75.7813H75.8686H76.5748H78.1619H80.5424H82.0184H86.5811H94.0323C96.224 18.5616 97.9999 16.6876 97.9999 14.3748V4.18677C97.9999 1.87484 96.2232 0 94.0323 0Z" fill="#5A4495"/>
<path d="M13.0901 7.4605H10.8351V14H8.97614V7.4605H6.72114V5.9865H13.0901V7.4605ZM14.916 8.2085C15.3486 8.2085 15.7428 8.27633 16.0985 8.412C16.4541 8.54767 16.7585 8.742 17.0115 8.995C17.2681 9.248 17.4661 9.556 17.6055 9.919C17.7485 10.2783 17.82 10.6835 17.82 11.1345C17.82 11.5892 17.7485 11.9998 17.6055 12.3665C17.4661 12.7295 17.2681 13.0393 17.0115 13.296C16.7585 13.549 16.4541 13.7452 16.0985 13.8845C15.7428 14.0202 15.3486 14.088 14.916 14.088C14.4796 14.088 14.0818 14.0202 13.7225 13.8845C13.3668 13.7452 13.0588 13.549 12.7985 13.296C12.5418 13.0393 12.342 12.7295 12.199 12.3665C12.0596 11.9998 11.99 11.5892 11.99 11.1345C11.99 10.6835 12.0596 10.2783 12.199 9.919C12.342 9.556 12.5418 9.248 12.7985 8.995C13.0588 8.742 13.3668 8.54767 13.7225 8.412C14.0818 8.27633 14.4796 8.2085 14.916 8.2085ZM14.916 12.823C15.3083 12.823 15.5961 12.6855 15.7795 12.4105C15.9665 12.1318 16.06 11.7102 16.06 11.1455C16.06 10.5808 15.9665 10.161 15.7795 9.886C15.5961 9.611 15.3083 9.4735 14.916 9.4735C14.5126 9.4735 14.2175 9.611 14.0305 9.886C13.8435 10.161 13.75 10.5808 13.75 11.1455C13.75 11.7102 13.8435 12.1318 14.0305 12.4105C14.2175 12.6855 14.5126 12.823 14.916 12.823ZM23.5436 8.2965V14H22.4876C22.2749 14 22.1356 13.9047 22.0696 13.714L21.9706 13.384C21.8606 13.4903 21.7469 13.5875 21.6296 13.6755C21.5122 13.7598 21.3857 13.8332 21.2501 13.8955C21.1181 13.9542 20.9732 14 20.8156 14.033C20.6616 14.0697 20.4929 14.088 20.3096 14.088C19.9979 14.088 19.7211 14.0348 19.4791 13.9285C19.2407 13.8185 19.0391 13.6663 18.8741 13.472C18.7091 13.2777 18.5844 13.0485 18.5001 12.7845C18.4157 12.5205 18.3736 12.2308 18.3736 11.9155V8.2965H20.0786V11.9155C20.0786 12.1978 20.1427 12.416 20.2711 12.57C20.3994 12.724 20.5882 12.801 20.8376 12.801C21.0246 12.801 21.1987 12.7625 21.3601 12.6855C21.5251 12.6048 21.6846 12.4967 21.8386 12.361V8.2965H23.5436ZM26.047 9.1765C26.223 8.8685 26.4247 8.6265 26.652 8.4505C26.883 8.2745 27.147 8.1865 27.444 8.1865C27.7007 8.1865 27.9097 8.247 28.071 8.368L27.961 9.622C27.9427 9.70267 27.9115 9.75767 27.8675 9.787C27.8272 9.81633 27.7703 9.831 27.697 9.831C27.6677 9.831 27.6292 9.82917 27.5815 9.8255C27.5338 9.82183 27.4843 9.81817 27.433 9.8145C27.3817 9.80717 27.3285 9.80167 27.2735 9.798C27.2222 9.79067 27.1745 9.787 27.1305 9.787C26.8812 9.787 26.6813 9.853 26.531 9.985C26.3843 10.117 26.2597 10.3003 26.157 10.535V14H24.452V8.2965H25.464C25.5483 8.2965 25.618 8.30383 25.673 8.3185C25.7317 8.33317 25.7793 8.357 25.816 8.39C25.8563 8.41933 25.8857 8.45967 25.904 8.511C25.926 8.56233 25.9443 8.62467 25.959 8.698L26.047 9.1765ZM29.9752 8.9125C30.0852 8.80983 30.1989 8.7145 30.3162 8.6265C30.4335 8.5385 30.5582 8.46517 30.6902 8.4065C30.8259 8.34417 30.9707 8.2965 31.1247 8.2635C31.2824 8.22683 31.4529 8.2085 31.6362 8.2085C31.9479 8.2085 32.2229 8.2635 32.4612 8.3735C32.7032 8.47983 32.9067 8.63017 33.0717 8.8245C33.2367 9.01517 33.3614 9.24433 33.4457 9.512C33.53 9.776 33.5722 10.0638 33.5722 10.3755V14H31.8672V10.3755C31.8672 10.0968 31.803 9.8805 31.6747 9.7265C31.5464 9.56883 31.3575 9.49 31.1082 9.49C30.9212 9.49 30.7452 9.53033 30.5802 9.611C30.4189 9.688 30.2612 9.79433 30.1072 9.93V14H28.4022V8.2965H29.4582C29.6709 8.2965 29.8102 8.39183 29.8762 8.5825L29.9752 8.9125ZM37.9731 10.4635C37.9731 10.3278 37.9548 10.1958 37.9181 10.0675C37.8851 9.93917 37.8283 9.8255 37.7476 9.7265C37.6706 9.62383 37.568 9.54133 37.4396 9.479C37.3113 9.41667 37.1555 9.3855 36.9721 9.3855C36.6495 9.3855 36.3965 9.479 36.2131 9.666C36.0298 9.84933 35.9088 10.1152 35.8501 10.4635H37.9731ZM35.8281 11.4535C35.8831 11.9302 36.028 12.2767 36.2626 12.493C36.4973 12.7057 36.7998 12.812 37.1701 12.812C37.3681 12.812 37.5386 12.7882 37.6816 12.7405C37.8246 12.6928 37.9511 12.6397 38.0611 12.581C38.1748 12.5223 38.2775 12.4692 38.3691 12.4215C38.4645 12.3738 38.5635 12.35 38.6661 12.35C38.8018 12.35 38.9045 12.3995 38.9741 12.4985L39.4691 13.109C39.2931 13.3107 39.1025 13.4757 38.8971 13.604C38.6955 13.7287 38.4865 13.8277 38.2701 13.901C38.0575 13.9707 37.843 14.0183 37.6266 14.044C37.414 14.0733 37.2105 14.088 37.0161 14.088C36.6165 14.088 36.2406 14.0238 35.8886 13.8955C35.5403 13.7635 35.2341 13.5692 34.9701 13.3125C34.7098 13.0558 34.5026 12.7368 34.3486 12.3555C34.1983 11.9742 34.1231 11.5305 34.1231 11.0245C34.1231 10.6432 34.1873 10.282 34.3156 9.941C34.4476 9.6 34.6346 9.30117 34.8766 9.0445C35.1223 8.78783 35.4175 8.58433 35.7621 8.434C36.1105 8.28367 36.5028 8.2085 36.9391 8.2085C37.3168 8.2085 37.6615 8.26717 37.9731 8.3845C38.2885 8.50183 38.558 8.67233 38.7816 8.896C39.009 9.11967 39.185 9.39467 39.3096 9.721C39.438 10.0437 39.5021 10.4103 39.5021 10.821C39.5021 10.9493 39.4966 11.0538 39.4856 11.1345C39.4746 11.2152 39.4545 11.2793 39.4251 11.327C39.3958 11.3747 39.3555 11.4077 39.3041 11.426C39.2565 11.4443 39.1941 11.4535 39.1171 11.4535H35.8281ZM41.7003 9.1765C41.8763 8.8685 42.078 8.6265 42.3053 8.4505C42.5363 8.2745 42.8003 8.1865 43.0973 8.1865C43.354 8.1865 43.563 8.247 43.7243 8.368L43.6143 9.622C43.596 9.70267 43.5648 9.75767 43.5208 9.787C43.4805 9.81633 43.4237 9.831 43.3503 9.831C43.321 9.831 43.2825 9.82917 43.2348 9.8255C43.1872 9.82183 43.1377 9.81817 43.0863 9.8145C43.035 9.80717 42.9818 9.80167 42.9268 9.798C42.8755 9.79067 42.8278 9.787 42.7838 9.787C42.5345 9.787 42.3347 9.853 42.1843 9.985C42.0377 10.117 41.913 10.3003 41.8103 10.535V14H40.1053V8.2965H41.1173C41.2017 8.2965 41.2713 8.30383 41.3263 8.3185C41.385 8.33317 41.4327 8.357 41.4693 8.39C41.5097 8.41933 41.539 8.45967 41.5573 8.511C41.5793 8.56233 41.5977 8.62467 41.6123 8.698L41.7003 9.1765ZM49.0683 11.679C48.7273 11.6937 48.4468 11.723 48.2268 11.767C48.0068 11.811 47.8327 11.866 47.7043 11.932C47.576 11.998 47.4862 12.0732 47.4348 12.1575C47.3872 12.2418 47.3633 12.3335 47.3633 12.4325C47.3633 12.6268 47.4165 12.7643 47.5228 12.845C47.6292 12.922 47.785 12.9605 47.9903 12.9605C48.2103 12.9605 48.4028 12.922 48.5678 12.845C48.7328 12.768 48.8997 12.6433 49.0683 12.471V11.679ZM45.9993 9.0885C46.344 8.78417 46.7253 8.55867 47.1433 8.412C47.565 8.26167 48.016 8.1865 48.4963 8.1865C48.841 8.1865 49.1508 8.24333 49.4258 8.357C49.7045 8.467 49.9392 8.62283 50.1298 8.8245C50.3242 9.0225 50.4727 9.259 50.5753 9.534C50.678 9.809 50.7293 10.1097 50.7293 10.436V14H49.9483C49.787 14 49.6642 13.978 49.5798 13.934C49.4992 13.89 49.4313 13.7983 49.3763 13.659L49.2553 13.3455C49.1123 13.4665 48.9748 13.5728 48.8428 13.6645C48.7108 13.7562 48.5733 13.835 48.4303 13.901C48.291 13.9633 48.1407 14.0092 47.9793 14.0385C47.8217 14.0715 47.6457 14.088 47.4513 14.088C47.191 14.088 46.9545 14.055 46.7418 13.989C46.5292 13.9193 46.3477 13.8185 46.1973 13.6865C46.0507 13.5545 45.937 13.3913 45.8563 13.197C45.7757 12.999 45.7353 12.7717 45.7353 12.515C45.7353 12.3097 45.7867 12.1025 45.8893 11.8935C45.992 11.6808 46.1698 11.4883 46.4228 11.316C46.6758 11.14 47.0168 10.9933 47.4458 10.876C47.8748 10.7587 48.4157 10.6927 49.0683 10.678V10.436C49.0683 10.1023 48.9987 9.86217 48.8593 9.7155C48.7237 9.56517 48.5293 9.49 48.2763 9.49C48.0747 9.49 47.9097 9.512 47.7813 9.556C47.653 9.6 47.5375 9.6495 47.4348 9.7045C47.3358 9.7595 47.2387 9.809 47.1433 9.853C47.048 9.897 46.9343 9.919 46.8023 9.919C46.685 9.919 46.586 9.88967 46.5053 9.831C46.4247 9.77233 46.3587 9.70267 46.3073 9.622L45.9993 9.0885ZM56.0376 10.8485C56.3199 10.8485 56.5234 10.7788 56.6481 10.6395C56.7764 10.4965 56.8406 10.3132 56.8406 10.0895C56.8406 9.8585 56.7764 9.677 56.6481 9.545C56.5234 9.413 56.3199 9.347 56.0376 9.347C55.7553 9.347 55.5499 9.413 55.4216 9.545C55.2969 9.677 55.2346 9.8585 55.2346 10.0895C55.2346 10.1995 55.2493 10.3003 55.2786 10.392C55.3116 10.4837 55.3611 10.5643 55.4271 10.634C55.4931 10.7 55.5756 10.7532 55.6746 10.7935C55.7773 10.8302 55.8983 10.8485 56.0376 10.8485ZM57.3576 14.209C57.3576 14.0733 57.2971 13.9762 57.1761 13.9175C57.0551 13.8552 56.8974 13.8112 56.7031 13.7855C56.5088 13.7598 56.2906 13.7452 56.0486 13.7415C55.8103 13.7342 55.5719 13.7195 55.3336 13.6975C55.2273 13.7708 55.1393 13.8533 55.0696 13.945C55.0036 14.033 54.9706 14.1338 54.9706 14.2475C54.9706 14.3282 54.9871 14.4015 55.0201 14.4675C55.0568 14.5335 55.1191 14.5903 55.2071 14.638C55.2951 14.6857 55.4124 14.7223 55.5591 14.748C55.7094 14.7773 55.8983 14.792 56.1256 14.792C56.3713 14.792 56.5729 14.7773 56.7306 14.748C56.8883 14.7187 57.0129 14.6783 57.1046 14.627C57.1999 14.5757 57.2659 14.5133 57.3026 14.44C57.3393 14.3703 57.3576 14.2933 57.3576 14.209ZM59.0406 8.4725V9.094C59.0406 9.18933 59.0131 9.2645 58.9581 9.3195C58.9068 9.3745 58.8169 9.41667 58.6886 9.446L58.2761 9.5395C58.2981 9.62017 58.3146 9.70267 58.3256 9.787C58.3403 9.87133 58.3476 9.95933 58.3476 10.051C58.3476 10.337 58.2871 10.5937 58.1661 10.821C58.0488 11.0483 57.8856 11.2427 57.6766 11.404C57.4713 11.5617 57.2274 11.6845 56.9451 11.7725C56.6628 11.8568 56.3603 11.899 56.0376 11.899C55.9496 11.899 55.8634 11.8972 55.7791 11.8935C55.6948 11.8862 55.6123 11.8752 55.5316 11.8605C55.4069 11.9375 55.3446 12.0237 55.3446 12.119C55.3446 12.2143 55.3959 12.284 55.4986 12.328C55.6013 12.3683 55.7369 12.3977 55.9056 12.416C56.0743 12.4307 56.2649 12.4417 56.4776 12.449C56.6939 12.4527 56.9139 12.4655 57.1376 12.4875C57.3613 12.5058 57.5794 12.5388 57.7921 12.5865C58.0084 12.6342 58.2009 12.7112 58.3696 12.8175C58.5383 12.9238 58.6739 13.0668 58.7766 13.2465C58.8793 13.4225 58.9306 13.648 58.9306 13.923C58.9306 14.1797 58.8683 14.4308 58.7436 14.6765C58.6189 14.9222 58.4356 15.1403 58.1936 15.331C57.9516 15.5217 57.6546 15.6738 57.3026 15.7875C56.9506 15.9048 56.5473 15.9635 56.0926 15.9635C55.6453 15.9635 55.2584 15.9213 54.9321 15.837C54.6094 15.7527 54.3399 15.6408 54.1236 15.5015C53.9109 15.3658 53.7533 15.2082 53.6506 15.0285C53.5479 14.8488 53.4966 14.6618 53.4966 14.4675C53.4966 14.2145 53.5699 14.0037 53.7166 13.835C53.8633 13.6663 54.0686 13.5307 54.3326 13.428C54.1933 13.3437 54.0833 13.2355 54.0026 13.1035C53.9219 12.9715 53.8816 12.801 53.8816 12.592C53.8816 12.5077 53.8963 12.4197 53.9256 12.328C53.9549 12.2327 54.0008 12.141 54.0631 12.053C54.1291 11.9613 54.2098 11.8752 54.3051 11.7945C54.4004 11.7138 54.5141 11.6423 54.6461 11.58C54.3491 11.4223 54.1144 11.2152 53.9421 10.9585C53.7698 10.6982 53.6836 10.3957 53.6836 10.051C53.6836 9.765 53.7441 9.50833 53.8651 9.281C53.9861 9.05 54.1511 8.85567 54.3601 8.698C54.5728 8.53667 54.8221 8.41383 55.1081 8.3295C55.3941 8.2415 55.7039 8.1975 56.0376 8.1975C56.5216 8.1975 56.9506 8.28917 57.3246 8.4725H59.0406ZM62.4443 11.679C62.1033 11.6937 61.8228 11.723 61.6028 11.767C61.3828 11.811 61.2086 11.866 61.0803 11.932C60.952 11.998 60.8621 12.0732 60.8108 12.1575C60.7631 12.2418 60.7393 12.3335 60.7393 12.4325C60.7393 12.6268 60.7925 12.7643 60.8988 12.845C61.0051 12.922 61.161 12.9605 61.3663 12.9605C61.5863 12.9605 61.7788 12.922 61.9438 12.845C62.1088 12.768 62.2756 12.6433 62.4443 12.471V11.679ZM59.3753 9.0885C59.72 8.78417 60.1013 8.55867 60.5193 8.412C60.941 8.26167 61.392 8.1865 61.8723 8.1865C62.217 8.1865 62.5268 8.24333 62.8018 8.357C63.0805 8.467 63.3151 8.62283 63.5058 8.8245C63.7001 9.0225 63.8486 9.259 63.9513 9.534C64.054 9.809 64.1053 10.1097 64.1053 10.436V14H63.3243C63.163 14 63.0401 13.978 62.9558 13.934C62.8751 13.89 62.8073 13.7983 62.7523 13.659L62.6313 13.3455C62.4883 13.4665 62.3508 13.5728 62.2188 13.6645C62.0868 13.7562 61.9493 13.835 61.8063 13.901C61.667 13.9633 61.5166 14.0092 61.3553 14.0385C61.1976 14.0715 61.0216 14.088 60.8273 14.088C60.567 14.088 60.3305 14.055 60.1178 13.989C59.9051 13.9193 59.7236 13.8185 59.5733 13.6865C59.4266 13.5545 59.313 13.3913 59.2323 13.197C59.1516 12.999 59.1113 12.7717 59.1113 12.515C59.1113 12.3097 59.1626 12.1025 59.2653 11.8935C59.368 11.6808 59.5458 11.4883 59.7988 11.316C60.0518 11.14 60.3928 10.9933 60.8218 10.876C61.2508 10.7587 61.7916 10.6927 62.4443 10.678V10.436C62.4443 10.1023 62.3746 9.86217 62.2353 9.7155C62.0996 9.56517 61.9053 9.49 61.6523 9.49C61.4506 9.49 61.2856 9.512 61.1573 9.556C61.029 9.6 60.9135 9.6495 60.8108 9.7045C60.7118 9.7595 60.6146 9.809 60.5193 9.853C60.424 9.897 60.3103 9.919 60.1783 9.919C60.061 9.919 59.962 9.88967 59.8813 9.831C59.8006 9.77233 59.7346 9.70267 59.6833 9.622L59.3753 9.0885ZM70.0602 8.2965V14H69.0042C68.7915 14 68.6522 13.9047 68.5862 13.714L68.4872 13.384C68.3772 13.4903 68.2635 13.5875 68.1462 13.6755C68.0288 13.7598 67.9023 13.8332 67.7667 13.8955C67.6347 13.9542 67.4898 14 67.3322 14.033C67.1782 14.0697 67.0095 14.088 66.8262 14.088C66.5145 14.088 66.2377 14.0348 65.9957 13.9285C65.7573 13.8185 65.5557 13.6663 65.3907 13.472C65.2257 13.2777 65.101 13.0485 65.0167 12.7845C64.9323 12.5205 64.8902 12.2308 64.8902 11.9155V8.2965H66.5952V11.9155C66.5952 12.1978 66.6593 12.416 66.7877 12.57C66.916 12.724 67.1048 12.801 67.3542 12.801C67.5412 12.801 67.7153 12.7625 67.8767 12.6855C68.0417 12.6048 68.2012 12.4967 68.3552 12.361V8.2965H70.0602ZM75.1596 9.6495C75.1083 9.71183 75.0588 9.76133 75.0111 9.798C74.9634 9.83467 74.8956 9.853 74.8076 9.853C74.7233 9.853 74.6463 9.83283 74.5766 9.7925C74.5106 9.75217 74.4354 9.70817 74.3511 9.6605C74.2668 9.60917 74.1678 9.56333 74.0541 9.523C73.9404 9.48267 73.7993 9.4625 73.6306 9.4625C73.4216 9.4625 73.2401 9.501 73.0861 9.578C72.9358 9.655 72.8111 9.765 72.7121 9.908C72.6131 10.051 72.5398 10.227 72.4921 10.436C72.4444 10.6413 72.4206 10.8742 72.4206 11.1345C72.4206 11.6808 72.5251 12.1007 72.7341 12.394C72.9468 12.6873 73.2383 12.834 73.6086 12.834C73.8066 12.834 73.9624 12.8102 74.0761 12.7625C74.1934 12.7112 74.2924 12.6562 74.3731 12.5975C74.4538 12.5352 74.5271 12.4783 74.5931 12.427C74.6628 12.3757 74.7489 12.35 74.8516 12.35C74.9873 12.35 75.0899 12.3995 75.1596 12.4985L75.6546 13.109C75.4786 13.3107 75.2934 13.4757 75.0991 13.604C74.9048 13.7287 74.7049 13.8277 74.4996 13.901C74.2979 13.9707 74.0944 14.0183 73.8891 14.044C73.6838 14.0733 73.4839 14.088 73.2896 14.088C72.9413 14.088 72.6076 14.022 72.2886 13.89C71.9733 13.758 71.6946 13.5673 71.4526 13.318C71.2143 13.065 71.0236 12.7552 70.8806 12.3885C70.7413 12.0218 70.6716 11.6038 70.6716 11.1345C70.6716 10.7238 70.7321 10.3407 70.8531 9.985C70.9778 9.62567 71.1593 9.31583 71.3976 9.0555C71.6396 8.7915 71.9366 8.58433 72.2886 8.434C72.6443 8.28367 73.0549 8.2085 73.5206 8.2085C73.9679 8.2085 74.3603 8.28 74.6976 8.423C75.0349 8.566 75.3393 8.775 75.6106 9.05L75.1596 9.6495ZM77.7732 8.797C77.9785 8.621 78.2004 8.47983 78.4387 8.3735C78.6807 8.2635 78.9685 8.2085 79.3022 8.2085C79.6139 8.2085 79.8889 8.2635 80.1272 8.3735C80.3692 8.47983 80.5727 8.63017 80.7377 8.8245C80.9027 9.01517 81.0274 9.24433 81.1117 9.512C81.196 9.776 81.2382 10.0638 81.2382 10.3755V14H79.5332V10.3755C79.5332 10.0968 79.469 9.8805 79.3407 9.7265C79.2124 9.56883 79.0235 9.49 78.7742 9.49C78.5872 9.49 78.4112 9.53033 78.2462 9.611C78.0849 9.688 77.9272 9.79433 77.7732 9.93V14H76.0682V5.7665H77.7732V8.797ZM85.6392 10.4635C85.6392 10.3278 85.6208 10.1958 85.5842 10.0675C85.5512 9.93917 85.4943 9.8255 85.4137 9.7265C85.3367 9.62383 85.234 9.54133 85.1057 9.479C84.9773 9.41667 84.8215 9.3855 84.6382 9.3855C84.3155 9.3855 84.0625 9.479 83.8792 9.666C83.6958 9.84933 83.5748 10.1152 83.5162 10.4635H85.6392ZM83.4942 11.4535C83.5492 11.9302 83.694 12.2767 83.9287 12.493C84.1633 12.7057 84.4658 12.812 84.8362 12.812C85.0342 12.812 85.2047 12.7882 85.3477 12.7405C85.4907 12.6928 85.6172 12.6397 85.7272 12.581C85.8408 12.5223 85.9435 12.4692 86.0352 12.4215C86.1305 12.3738 86.2295 12.35 86.3322 12.35C86.4678 12.35 86.5705 12.3995 86.6402 12.4985L87.1352 13.109C86.9592 13.3107 86.7685 13.4757 86.5632 13.604C86.3615 13.7287 86.1525 13.8277 85.9362 13.901C85.7235 13.9707 85.509 14.0183 85.2927 14.044C85.08 14.0733 84.8765 14.088 84.6822 14.088C84.2825 14.088 83.9067 14.0238 83.5547 13.8955C83.2063 13.7635 82.9002 13.5692 82.6362 13.3125C82.3758 13.0558 82.1687 12.7368 82.0147 12.3555C81.8643 11.9742 81.7892 11.5305 81.7892 11.0245C81.7892 10.6432 81.8533 10.282 81.9817 9.941C82.1137 9.6 82.3007 9.30117 82.5427 9.0445C82.7883 8.78783 83.0835 8.58433 83.4282 8.434C83.7765 8.28367 84.1688 8.2085 84.6052 8.2085C84.9828 8.2085 85.3275 8.26717 85.6392 8.3845C85.9545 8.50183 86.224 8.67233 86.4477 8.896C86.675 9.11967 86.851 9.39467 86.9757 9.721C87.104 10.0437 87.1682 10.4103 87.1682 10.821C87.1682 10.9493 87.1627 11.0538 87.1517 11.1345C87.1407 11.2152 87.1205 11.2793 87.0912 11.327C87.0618 11.3747 87.0215 11.4077 86.9702 11.426C86.9225 11.4443 86.8602 11.4535 86.7832 11.4535H83.4942Z" fill="white"/>
</g>
<defs>
<clipPath id="clip0_477_112">
<rect width="98" height="21" fill="white"/>
</clipPath>
</defs>
</svg>
