<svg width="98" height="21" viewBox="0 0 98 21" fill="none" xmlns="http://www.w3.org/2000/svg">
<g clip-path="url(#clip0_477_117)">
<path d="M94.0323 0H86.5811H82.0184H80.5424H78.1619H76.5748H75.8686H75.7813H73.4007H73.0913H69.3887H65.8178H55.3703H21.0338L19.4023 2.13105C19.2516 2.32783 19.0246 2.44255 18.785 2.44255H12.6296C12.39 2.44255 12.163 2.32783 12.0123 2.13105L10.3808 0H3.96675C1.77583 0 -0.000862122 1.874 -0.000862122 4.18677V14.3748C-0.000862122 16.6876 1.77583 18.5616 3.96675 18.5616H10.3848L12.0123 20.6877C12.163 20.8853 12.3908 21 12.6296 21H18.785C19.0254 21 19.2516 20.8853 19.4023 20.6877L21.0299 18.5616H55.3687H65.8163H69.3871H73.0913H73.4007H75.7813H75.8686H76.5748H78.1619H80.5424H82.0184H86.5811H94.0323C96.224 18.5616 97.9999 16.6876 97.9999 14.3748V4.18677C97.9999 1.87484 96.2232 0 94.0323 0Z" fill="#5A4495"/>
<path d="M15.8724 7.4605H13.6174V14H11.7584V7.4605H9.50337V5.9865H15.8724V7.4605ZM17.6982 8.2085C18.1309 8.2085 18.525 8.27633 18.8807 8.412C19.2364 8.54767 19.5407 8.742 19.7937 8.995C20.0504 9.248 20.2484 9.556 20.3877 9.919C20.5307 10.2783 20.6022 10.6835 20.6022 11.1345C20.6022 11.5892 20.5307 11.9998 20.3877 12.3665C20.2484 12.7295 20.0504 13.0393 19.7937 13.296C19.5407 13.549 19.2364 13.7452 18.8807 13.8845C18.525 14.0202 18.1309 14.088 17.6982 14.088C17.2619 14.088 16.864 14.0202 16.5047 13.8845C16.149 13.7452 15.841 13.549 15.5807 13.296C15.324 13.0393 15.1242 12.7295 14.9812 12.3665C14.8419 11.9998 14.7722 11.5892 14.7722 11.1345C14.7722 10.6835 14.8419 10.2783 14.9812 9.919C15.1242 9.556 15.324 9.248 15.5807 8.995C15.841 8.742 16.149 8.54767 16.5047 8.412C16.864 8.27633 17.2619 8.2085 17.6982 8.2085ZM17.6982 12.823C18.0905 12.823 18.3784 12.6855 18.5617 12.4105C18.7487 12.1318 18.8422 11.7102 18.8422 11.1455C18.8422 10.5808 18.7487 10.161 18.5617 9.886C18.3784 9.611 18.0905 9.4735 17.6982 9.4735C17.2949 9.4735 16.9997 9.611 16.8127 9.886C16.6257 10.161 16.5322 10.5808 16.5322 11.1455C16.5322 11.7102 16.6257 12.1318 16.8127 12.4105C16.9997 12.6855 17.2949 12.823 17.6982 12.823ZM26.3258 8.2965V14H25.2698C25.0571 14 24.9178 13.9047 24.8518 13.714L24.7528 13.384C24.6428 13.4903 24.5291 13.5875 24.4118 13.6755C24.2945 13.7598 24.168 13.8332 24.0323 13.8955C23.9003 13.9542 23.7555 14 23.5978 14.033C23.4438 14.0697 23.2751 14.088 23.0918 14.088C22.7801 14.088 22.5033 14.0348 22.2613 13.9285C22.023 13.8185 21.8213 13.6663 21.6563 13.472C21.4913 13.2777 21.3666 13.0485 21.2823 12.7845C21.198 12.5205 21.1558 12.2308 21.1558 11.9155V8.2965H22.8608V11.9155C22.8608 12.1978 22.925 12.416 23.0533 12.57C23.1816 12.724 23.3705 12.801 23.6198 12.801C23.8068 12.801 23.981 12.7625 24.1423 12.6855C24.3073 12.6048 24.4668 12.4967 24.6208 12.361V8.2965H26.3258ZM28.8292 9.1765C29.0052 8.8685 29.2069 8.6265 29.4342 8.4505C29.6652 8.2745 29.9292 8.1865 30.2262 8.1865C30.4829 8.1865 30.6919 8.247 30.8532 8.368L30.7432 9.622C30.7249 9.70267 30.6937 9.75767 30.6497 9.787C30.6094 9.81633 30.5526 9.831 30.4792 9.831C30.4499 9.831 30.4114 9.82917 30.3637 9.8255C30.3161 9.82183 30.2666 9.81817 30.2152 9.8145C30.1639 9.80717 30.1107 9.80167 30.0557 9.798C30.0044 9.79067 29.9567 9.787 29.9127 9.787C29.6634 9.787 29.4636 9.853 29.3132 9.985C29.1666 10.117 29.0419 10.3003 28.9392 10.535V14H27.2342V8.2965H28.2462C28.3306 8.2965 28.4002 8.30383 28.4552 8.3185C28.5139 8.33317 28.5616 8.357 28.5982 8.39C28.6386 8.41933 28.6679 8.45967 28.6862 8.511C28.7082 8.56233 28.7266 8.62467 28.7412 8.698L28.8292 9.1765ZM32.7574 8.9125C32.8674 8.80983 32.9811 8.7145 33.0984 8.6265C33.2158 8.5385 33.3404 8.46517 33.4724 8.4065C33.6081 8.34417 33.7529 8.2965 33.9069 8.2635C34.0646 8.22683 34.2351 8.2085 34.4184 8.2085C34.7301 8.2085 35.0051 8.2635 35.2434 8.3735C35.4854 8.47983 35.6889 8.63017 35.8539 8.8245C36.0189 9.01517 36.1436 9.24433 36.2279 9.512C36.3123 9.776 36.3544 10.0638 36.3544 10.3755V14H34.6494V10.3755C34.6494 10.0968 34.5853 9.8805 34.4569 9.7265C34.3286 9.56883 34.1398 9.49 33.8904 9.49C33.7034 9.49 33.5274 9.53033 33.3624 9.611C33.2011 9.688 33.0434 9.79433 32.8894 9.93V14H31.1844V8.2965H32.2404C32.4531 8.2965 32.5924 8.39183 32.6584 8.5825L32.7574 8.9125ZM40.7554 10.4635C40.7554 10.3278 40.737 10.1958 40.7004 10.0675C40.6674 9.93917 40.6105 9.8255 40.5299 9.7265C40.4529 9.62383 40.3502 9.54133 40.2219 9.479C40.0935 9.41667 39.9377 9.3855 39.7544 9.3855C39.4317 9.3855 39.1787 9.479 38.9954 9.666C38.812 9.84933 38.691 10.1152 38.6324 10.4635H40.7554ZM38.6104 11.4535C38.6654 11.9302 38.8102 12.2767 39.0449 12.493C39.2795 12.7057 39.582 12.812 39.9524 12.812C40.1504 12.812 40.3209 12.7882 40.4639 12.7405C40.6069 12.6928 40.7334 12.6397 40.8434 12.581C40.957 12.5223 41.0597 12.4692 41.1514 12.4215C41.2467 12.3738 41.3457 12.35 41.4484 12.35C41.584 12.35 41.6867 12.3995 41.7564 12.4985L42.2514 13.109C42.0754 13.3107 41.8847 13.4757 41.6794 13.604C41.4777 13.7287 41.2687 13.8277 41.0524 13.901C40.8397 13.9707 40.6252 14.0183 40.4089 14.044C40.1962 14.0733 39.9927 14.088 39.7984 14.088C39.3987 14.088 39.0229 14.0238 38.6709 13.8955C38.3225 13.7635 38.0164 13.5692 37.7524 13.3125C37.492 13.0558 37.2849 12.7368 37.1309 12.3555C36.9805 11.9742 36.9054 11.5305 36.9054 11.0245C36.9054 10.6432 36.9695 10.282 37.0979 9.941C37.2299 9.6 37.4169 9.30117 37.6589 9.0445C37.9045 8.78783 38.1997 8.58433 38.5444 8.434C38.8927 8.28367 39.285 8.2085 39.7214 8.2085C40.099 8.2085 40.4437 8.26717 40.7554 8.3845C41.0707 8.50183 41.3402 8.67233 41.5639 8.896C41.7912 9.11967 41.9672 9.39467 42.0919 9.721C42.2202 10.0437 42.2844 10.4103 42.2844 10.821C42.2844 10.9493 42.2789 11.0538 42.2679 11.1345C42.2569 11.2152 42.2367 11.2793 42.2074 11.327C42.178 11.3747 42.1377 11.4077 42.0864 11.426C42.0387 11.4443 41.9764 11.4535 41.8994 11.4535H38.6104ZM44.4826 9.1765C44.6586 8.8685 44.8602 8.6265 45.0876 8.4505C45.3186 8.2745 45.5826 8.1865 45.8796 8.1865C46.1362 8.1865 46.3452 8.247 46.5066 8.368L46.3966 9.622C46.3782 9.70267 46.3471 9.75767 46.3031 9.787C46.2627 9.81633 46.2059 9.831 46.1326 9.831C46.1032 9.831 46.0647 9.82917 46.0171 9.8255C45.9694 9.82183 45.9199 9.81817 45.8686 9.8145C45.8172 9.80717 45.7641 9.80167 45.7091 9.798C45.6577 9.79067 45.6101 9.787 45.5661 9.787C45.3167 9.787 45.1169 9.853 44.9666 9.985C44.8199 10.117 44.6952 10.3003 44.5926 10.535V14H42.8876V8.2965H43.8996C43.9839 8.2965 44.0536 8.30383 44.1086 8.3185C44.1672 8.33317 44.2149 8.357 44.2516 8.39C44.2919 8.41933 44.3212 8.45967 44.3396 8.511C44.3616 8.56233 44.3799 8.62467 44.3946 8.698L44.4826 9.1765ZM51.8506 11.679C51.5096 11.6937 51.2291 11.723 51.0091 11.767C50.7891 11.811 50.6149 11.866 50.4866 11.932C50.3582 11.998 50.2684 12.0732 50.2171 12.1575C50.1694 12.2418 50.1456 12.3335 50.1456 12.4325C50.1456 12.6268 50.1987 12.7643 50.3051 12.845C50.4114 12.922 50.5672 12.9605 50.7726 12.9605C50.9926 12.9605 51.1851 12.922 51.3501 12.845C51.5151 12.768 51.6819 12.6433 51.8506 12.471V11.679ZM48.7816 9.0885C49.1262 8.78417 49.5076 8.55867 49.9256 8.412C50.3472 8.26167 50.7982 8.1865 51.2786 8.1865C51.6232 8.1865 51.9331 8.24333 52.2081 8.357C52.4867 8.467 52.7214 8.62283 52.9121 8.8245C53.1064 9.0225 53.2549 9.259 53.3576 9.534C53.4602 9.809 53.5116 10.1097 53.5116 10.436V14H52.7306C52.5692 14 52.4464 13.978 52.3621 13.934C52.2814 13.89 52.2136 13.7983 52.1586 13.659L52.0376 13.3455C51.8946 13.4665 51.7571 13.5728 51.6251 13.6645C51.4931 13.7562 51.3556 13.835 51.2126 13.901C51.0732 13.9633 50.9229 14.0092 50.7616 14.0385C50.6039 14.0715 50.4279 14.088 50.2336 14.088C49.9732 14.088 49.7367 14.055 49.5241 13.989C49.3114 13.9193 49.1299 13.8185 48.9796 13.6865C48.8329 13.5545 48.7192 13.3913 48.6386 13.197C48.5579 12.999 48.5176 12.7717 48.5176 12.515C48.5176 12.3097 48.5689 12.1025 48.6716 11.8935C48.7742 11.6808 48.9521 11.4883 49.2051 11.316C49.4581 11.14 49.7991 10.9933 50.2281 10.876C50.6571 10.7587 51.1979 10.6927 51.8506 10.678V10.436C51.8506 10.1023 51.7809 9.86217 51.6416 9.7155C51.5059 9.56517 51.3116 9.49 51.0586 9.49C50.8569 9.49 50.6919 9.512 50.5636 9.556C50.4352 9.6 50.3197 9.6495 50.2171 9.7045C50.1181 9.7595 50.0209 9.809 49.9256 9.853C49.8302 9.897 49.7166 9.919 49.5846 9.919C49.4672 9.919 49.3682 9.88967 49.2876 9.831C49.2069 9.77233 49.1409 9.70267 49.0896 9.622L48.7816 9.0885ZM60.1068 9.8255C59.9785 9.6825 59.8392 9.5835 59.6888 9.5285C59.5385 9.46983 59.3808 9.4405 59.2158 9.4405C59.0582 9.4405 58.9133 9.47167 58.7813 9.534C58.6493 9.59633 58.5338 9.69717 58.4348 9.8365C58.3395 9.97217 58.2643 10.15 58.2093 10.37C58.1543 10.59 58.1268 10.8558 58.1268 11.1675C58.1268 11.4682 58.1488 11.7212 58.1928 11.9265C58.2368 12.1318 58.2973 12.2987 58.3743 12.427C58.455 12.5517 58.5503 12.6415 58.6603 12.6965C58.7703 12.7515 58.8932 12.779 59.0288 12.779C59.1535 12.779 59.2653 12.768 59.3643 12.746C59.467 12.7203 59.5605 12.6855 59.6448 12.6415C59.7292 12.5975 59.808 12.5425 59.8813 12.4765C59.9583 12.4068 60.0335 12.328 60.1068 12.24V9.8255ZM61.8118 5.7665V14H60.7558C60.5432 14 60.4038 13.9047 60.3378 13.714L60.2058 13.2795C60.0922 13.4005 59.973 13.5105 59.8483 13.6095C59.7237 13.7085 59.588 13.7947 59.4413 13.868C59.2983 13.9377 59.1425 13.9908 58.9738 14.0275C58.8088 14.0678 58.6291 14.088 58.4348 14.088C58.1378 14.088 57.8628 14.022 57.6098 13.89C57.3568 13.758 57.1386 13.5673 56.9553 13.318C56.772 13.0687 56.6271 12.7643 56.5208 12.405C56.4181 12.042 56.3668 11.6295 56.3668 11.1675C56.3668 10.7422 56.4255 10.348 56.5428 9.985C56.6601 9.61833 56.8251 9.303 57.0378 9.039C57.2542 8.77133 57.5126 8.56233 57.8133 8.412C58.114 8.26167 58.4458 8.1865 58.8088 8.1865C59.1058 8.1865 59.3552 8.22867 59.5568 8.313C59.7585 8.39733 59.9418 8.511 60.1068 8.654V5.7665H61.8118ZM64.3087 9.1765C64.4847 8.8685 64.6864 8.6265 64.9137 8.4505C65.1447 8.2745 65.4087 8.1865 65.7057 8.1865C65.9624 8.1865 66.1714 8.247 66.3327 8.368L66.2227 9.622C66.2044 9.70267 66.1732 9.75767 66.1292 9.787C66.0889 9.81633 66.0321 9.831 65.9587 9.831C65.9294 9.831 65.8909 9.82917 65.8432 9.8255C65.7956 9.82183 65.7461 9.81817 65.6947 9.8145C65.6434 9.80717 65.5902 9.80167 65.5352 9.798C65.4839 9.79067 65.4362 9.787 65.3922 9.787C65.1429 9.787 64.9431 9.853 64.7927 9.985C64.6461 10.117 64.5214 10.3003 64.4187 10.535V14H62.7137V8.2965H63.7257C63.8101 8.2965 63.8797 8.30383 63.9347 8.3185C63.9934 8.33317 64.0411 8.357 64.0777 8.39C64.1181 8.41933 64.1474 8.45967 64.1657 8.511C64.1877 8.56233 64.2061 8.62467 64.2207 8.698L64.3087 9.1765ZM69.1962 8.2085C69.6289 8.2085 70.0231 8.27633 70.3787 8.412C70.7344 8.54767 71.0387 8.742 71.2917 8.995C71.5484 9.248 71.7464 9.556 71.8857 9.919C72.0287 10.2783 72.1002 10.6835 72.1002 11.1345C72.1002 11.5892 72.0287 11.9998 71.8857 12.3665C71.7464 12.7295 71.5484 13.0393 71.2917 13.296C71.0387 13.549 70.7344 13.7452 70.3787 13.8845C70.0231 14.0202 69.6289 14.088 69.1962 14.088C68.7599 14.088 68.3621 14.0202 68.0027 13.8845C67.6471 13.7452 67.3391 13.549 67.0787 13.296C66.8221 13.0393 66.6222 12.7295 66.4792 12.3665C66.3399 11.9998 66.2702 11.5892 66.2702 11.1345C66.2702 10.6835 66.3399 10.2783 66.4792 9.919C66.6222 9.556 66.8221 9.248 67.0787 8.995C67.3391 8.742 67.6471 8.54767 68.0027 8.412C68.3621 8.27633 68.7599 8.2085 69.1962 8.2085ZM69.1962 12.823C69.5886 12.823 69.8764 12.6855 70.0597 12.4105C70.2467 12.1318 70.3402 11.7102 70.3402 11.1455C70.3402 10.5808 70.2467 10.161 70.0597 9.886C69.8764 9.611 69.5886 9.4735 69.1962 9.4735C68.7929 9.4735 68.4977 9.611 68.3107 9.886C68.1237 10.161 68.0302 10.5808 68.0302 11.1455C68.0302 11.7102 68.1237 12.1318 68.3107 12.4105C68.4977 12.6855 68.7929 12.823 69.1962 12.823ZM74.4523 8.2965V14H72.7473V8.2965H74.4523ZM74.6283 6.7345C74.6283 6.87017 74.6008 6.9985 74.5458 7.1195C74.4908 7.23683 74.4157 7.34133 74.3203 7.433C74.225 7.521 74.1132 7.5925 73.9848 7.6475C73.8602 7.69883 73.7263 7.7245 73.5833 7.7245C73.444 7.7245 73.3138 7.69883 73.1928 7.6475C73.0718 7.5925 72.9637 7.521 72.8683 7.433C72.7767 7.34133 72.7033 7.23683 72.6483 7.1195C72.597 6.9985 72.5713 6.87017 72.5713 6.7345C72.5713 6.59517 72.597 6.465 72.6483 6.344C72.7033 6.223 72.7767 6.11667 72.8683 6.025C72.9637 5.93333 73.0718 5.86183 73.1928 5.8105C73.3138 5.75917 73.444 5.7335 73.5833 5.7335C73.7263 5.7335 73.8602 5.75917 73.9848 5.8105C74.1132 5.86183 74.225 5.93333 74.3203 6.025C74.4157 6.11667 74.4908 6.223 74.5458 6.344C74.6008 6.465 74.6283 6.59517 74.6283 6.7345ZM77.432 14.088C77.1606 14.088 76.9205 14.0495 76.7115 13.9725C76.5061 13.8918 76.332 13.78 76.189 13.637C76.0496 13.4903 75.9433 13.3143 75.87 13.109C75.7966 12.9037 75.76 12.6745 75.76 12.4215V9.4735H75.276C75.188 9.4735 75.1128 9.446 75.0505 9.391C74.9881 9.33233 74.957 9.248 74.957 9.138V8.4725L75.8645 8.2965L76.2 6.905C76.244 6.729 76.3686 6.641 76.574 6.641H77.465V8.3075H78.8785V9.4735H77.465V12.306C77.465 12.438 77.4961 12.548 77.5585 12.636C77.6245 12.7203 77.718 12.7625 77.839 12.7625C77.9013 12.7625 77.9526 12.757 77.993 12.746C78.037 12.7313 78.0736 12.7167 78.103 12.702C78.136 12.6837 78.1653 12.669 78.191 12.658C78.2203 12.6433 78.2533 12.636 78.29 12.636C78.3413 12.636 78.3816 12.6488 78.411 12.6745C78.444 12.6965 78.477 12.7332 78.51 12.7845L79.027 13.593C78.807 13.758 78.5595 13.8827 78.2845 13.967C78.0095 14.0477 77.7253 14.088 77.432 14.088ZM82.8569 10.4635C82.8569 10.3278 82.8386 10.1958 82.8019 10.0675C82.7689 9.93917 82.7121 9.8255 82.6314 9.7265C82.5544 9.62383 82.4518 9.54133 82.3234 9.479C82.1951 9.41667 82.0393 9.3855 81.8559 9.3855C81.5333 9.3855 81.2803 9.479 81.0969 9.666C80.9136 9.84933 80.7926 10.1152 80.7339 10.4635H82.8569ZM80.7119 11.4535C80.7669 11.9302 80.9118 12.2767 81.1464 12.493C81.3811 12.7057 81.6836 12.812 82.0539 12.812C82.2519 12.812 82.4224 12.7882 82.5654 12.7405C82.7084 12.6928 82.8349 12.6397 82.9449 12.581C83.0586 12.5223 83.1613 12.4692 83.2529 12.4215C83.3483 12.3738 83.4473 12.35 83.5499 12.35C83.6856 12.35 83.7883 12.3995 83.8579 12.4985L84.3529 13.109C84.1769 13.3107 83.9863 13.4757 83.7809 13.604C83.5793 13.7287 83.3703 13.8277 83.1539 13.901C82.9413 13.9707 82.7268 14.0183 82.5104 14.044C82.2978 14.0733 82.0943 14.088 81.8999 14.088C81.5003 14.088 81.1244 14.0238 80.7724 13.8955C80.4241 13.7635 80.1179 13.5692 79.8539 13.3125C79.5936 13.0558 79.3864 12.7368 79.2324 12.3555C79.0821 11.9742 79.0069 11.5305 79.0069 11.0245C79.0069 10.6432 79.0711 10.282 79.1994 9.941C79.3314 9.6 79.5184 9.30117 79.7604 9.0445C80.0061 8.78783 80.3013 8.58433 80.6459 8.434C80.9943 8.28367 81.3866 8.2085 81.8229 8.2085C82.2006 8.2085 82.5453 8.26717 82.8569 8.3845C83.1723 8.50183 83.4418 8.67233 83.6654 8.896C83.8928 9.11967 84.0688 9.39467 84.1934 9.721C84.3218 10.0437 84.3859 10.4103 84.3859 10.821C84.3859 10.9493 84.3804 11.0538 84.3694 11.1345C84.3584 11.2152 84.3383 11.2793 84.3089 11.327C84.2796 11.3747 84.2393 11.4077 84.1879 11.426C84.1403 11.4443 84.0779 11.4535 84.0009 11.4535H80.7119Z" fill="white"/>
</g>
<defs>
<clipPath id="clip0_477_117">
<rect width="98" height="21" fill="white"/>
</clipPath>
</defs>
</svg>
