<svg width="98" height="21" viewBox="0 0 98 21" fill="none" xmlns="http://www.w3.org/2000/svg">
<path d="M94.0323 0H86.5811H82.0184H80.5424H78.1619H76.5748H75.8686H75.7813H73.4007H73.0913H69.3887H65.8178H55.3703H21.0338L19.4023 2.13105C19.2516 2.32783 19.0246 2.44255 18.785 2.44255H12.6296C12.39 2.44255 12.163 2.32783 12.0123 2.13105L10.3808 0H3.96675C1.77583 0 -0.000862122 1.874 -0.000862122 4.18677V14.3748C-0.000862122 16.6876 1.77583 18.5616 3.96675 18.5616H10.3848L12.0123 20.6877C12.163 20.8853 12.3908 21 12.6296 21H18.785C19.0254 21 19.2516 20.8853 19.4023 20.6877L21.0299 18.5616H55.3687H65.8163H69.3871H73.0913H73.4007H75.7813H75.8686H76.5748H78.1619H80.5424H82.0184H86.5811H94.0323C96.224 18.5616 97.9999 16.6876 97.9999 14.3748V4.18677C97.9999 1.87484 96.2232 0 94.0323 0Z" fill="#5A4495"/>
<path d="M43.9527 9.9365L43.2102 7.742C43.1552 7.60267 43.0965 7.4395 43.0342 7.2525C42.9718 7.06183 42.9095 6.8565 42.8472 6.6365C42.7922 6.86017 42.7335 7.06733 42.6712 7.258C42.6088 7.44867 42.5502 7.61367 42.4952 7.753L41.7582 9.9365H43.9527ZM46.9062 13H45.4652C45.3038 13 45.1737 12.9633 45.0747 12.89C44.9757 12.813 44.9005 12.7158 44.8492 12.5985L44.3762 11.2015H41.3292L40.8562 12.5985C40.8158 12.7012 40.7425 12.7947 40.6362 12.879C40.5335 12.9597 40.4052 13 40.2512 13H38.7992L41.9012 4.9865H43.8042L46.9062 13ZM51.9801 7.2965L49.7691 13H48.2181L46.0071 7.2965H47.4261C47.5471 7.2965 47.6479 7.32583 47.7286 7.3845C47.8129 7.4395 47.8698 7.50917 47.8991 7.5935L48.6911 10.151C48.7608 10.36 48.8213 10.5635 48.8726 10.7615C48.9276 10.9595 48.9753 11.1575 49.0156 11.3555C49.0963 10.9595 49.2081 10.558 49.3511 10.151L50.1761 7.5935C50.2054 7.50917 50.2604 7.4395 50.3411 7.3845C50.4218 7.32583 50.5171 7.2965 50.6271 7.2965H51.9801ZM55.0784 10.679C54.7374 10.6937 54.4569 10.723 54.2369 10.767C54.0169 10.811 53.8427 10.866 53.7144 10.932C53.5861 10.998 53.4962 11.0732 53.4449 11.1575C53.3972 11.2418 53.3734 11.3335 53.3734 11.4325C53.3734 11.6268 53.4266 11.7643 53.5329 11.845C53.6392 11.922 53.7951 11.9605 54.0004 11.9605C54.2204 11.9605 54.4129 11.922 54.5779 11.845C54.7429 11.768 54.9097 11.6433 55.0784 11.471V10.679ZM52.0094 8.0885C52.3541 7.78417 52.7354 7.55867 53.1534 7.412C53.5751 7.26167 54.0261 7.1865 54.5064 7.1865C54.8511 7.1865 55.1609 7.24333 55.4359 7.357C55.7146 7.467 55.9492 7.62283 56.1399 7.8245C56.3342 8.0225 56.4827 8.259 56.5854 8.534C56.6881 8.809 56.7394 9.10967 56.7394 9.436V13H55.9584C55.7971 13 55.6742 12.978 55.5899 12.934C55.5092 12.89 55.4414 12.7983 55.3864 12.659L55.2654 12.3455C55.1224 12.4665 54.9849 12.5728 54.8529 12.6645C54.7209 12.7562 54.5834 12.835 54.4404 12.901C54.3011 12.9633 54.1507 13.0092 53.9894 13.0385C53.8317 13.0715 53.6557 13.088 53.4614 13.088C53.2011 13.088 52.9646 13.055 52.7519 12.989C52.5392 12.9193 52.3577 12.8185 52.2074 12.6865C52.0607 12.5545 51.9471 12.3913 51.8664 12.197C51.7857 11.999 51.7454 11.7717 51.7454 11.515C51.7454 11.3097 51.7967 11.1025 51.8994 10.8935C52.0021 10.6808 52.1799 10.4883 52.4329 10.316C52.6859 10.14 53.0269 9.99333 53.4559 9.876C53.8849 9.75867 54.4257 9.69267 55.0784 9.678V9.436C55.0784 9.10233 55.0087 8.86217 54.8694 8.7155C54.7337 8.56517 54.5394 8.49 54.2864 8.49C54.0847 8.49 53.9197 8.512 53.7914 8.556C53.6631 8.6 53.5476 8.6495 53.4449 8.7045C53.3459 8.7595 53.2487 8.809 53.1534 8.853C53.0581 8.897 52.9444 8.919 52.8124 8.919C52.6951 8.919 52.5961 8.88967 52.5154 8.831C52.4347 8.77233 52.3687 8.70267 52.3174 8.622L52.0094 8.0885ZM59.1523 7.9125C59.2623 7.80983 59.3759 7.7145 59.4933 7.6265C59.6106 7.5385 59.7353 7.46517 59.8673 7.4065C60.0029 7.34417 60.1478 7.2965 60.3018 7.2635C60.4594 7.22683 60.6299 7.2085 60.8133 7.2085C61.1249 7.2085 61.3999 7.2635 61.6383 7.3735C61.8803 7.47983 62.0838 7.63017 62.2488 7.8245C62.4138 8.01517 62.5384 8.24433 62.6228 8.512C62.7071 8.776 62.7493 9.06383 62.7493 9.3755V13H61.0443V9.3755C61.0443 9.09683 60.9801 8.8805 60.8518 8.7265C60.7234 8.56883 60.5346 8.49 60.2853 8.49C60.0983 8.49 59.9223 8.53033 59.7573 8.611C59.5959 8.688 59.4383 8.79433 59.2843 8.93V13H57.5793V7.2965H58.6353C58.8479 7.2965 58.9873 7.39183 59.0533 7.5825L59.1523 7.9125ZM67.7937 8.6495C67.7424 8.71183 67.6929 8.76133 67.6452 8.798C67.5975 8.83467 67.5297 8.853 67.4417 8.853C67.3574 8.853 67.2804 8.83283 67.2107 8.7925C67.1447 8.75217 67.0695 8.70817 66.9852 8.6605C66.9009 8.60917 66.8019 8.56333 66.6882 8.523C66.5745 8.48267 66.4334 8.4625 66.2647 8.4625C66.0557 8.4625 65.8742 8.501 65.7202 8.578C65.5699 8.655 65.4452 8.765 65.3462 8.908C65.2472 9.051 65.1739 9.227 65.1262 9.436C65.0785 9.64133 65.0547 9.87417 65.0547 10.1345C65.0547 10.6808 65.1592 11.1007 65.3682 11.394C65.5809 11.6873 65.8724 11.834 66.2427 11.834C66.4407 11.834 66.5965 11.8102 66.7102 11.7625C66.8275 11.7112 66.9265 11.6562 67.0072 11.5975C67.0879 11.5352 67.1612 11.4783 67.2272 11.427C67.2969 11.3757 67.383 11.35 67.4857 11.35C67.6214 11.35 67.724 11.3995 67.7937 11.4985L68.2887 12.109C68.1127 12.3107 67.9275 12.4757 67.7332 12.604C67.5389 12.7287 67.339 12.8277 67.1337 12.901C66.932 12.9707 66.7285 13.0183 66.5232 13.044C66.3179 13.0733 66.118 13.088 65.9237 13.088C65.5754 13.088 65.2417 13.022 64.9227 12.89C64.6074 12.758 64.3287 12.5673 64.0867 12.318C63.8484 12.065 63.6577 11.7552 63.5147 11.3885C63.3754 11.0218 63.3057 10.6038 63.3057 10.1345C63.3057 9.72383 63.3662 9.34067 63.4872 8.985C63.6119 8.62567 63.7934 8.31583 64.0317 8.0555C64.2737 7.7915 64.5707 7.58433 64.9227 7.434C65.2784 7.28367 65.689 7.2085 66.1547 7.2085C66.602 7.2085 66.9944 7.28 67.3317 7.423C67.669 7.566 67.9734 7.775 68.2447 8.05L67.7937 8.6495ZM72.1531 9.4635C72.1531 9.32783 72.1348 9.19583 72.0981 9.0675C72.0651 8.93917 72.0083 8.8255 71.9276 8.7265C71.8506 8.62383 71.748 8.54133 71.6196 8.479C71.4913 8.41667 71.3355 8.3855 71.1521 8.3855C70.8295 8.3855 70.5765 8.479 70.3931 8.666C70.2098 8.84933 70.0888 9.11517 70.0301 9.4635H72.1531ZM70.0081 10.4535C70.0631 10.9302 70.208 11.2767 70.4426 11.493C70.6773 11.7057 70.9798 11.812 71.3501 11.812C71.5481 11.812 71.7186 11.7882 71.8616 11.7405C72.0046 11.6928 72.1311 11.6397 72.2411 11.581C72.3548 11.5223 72.4575 11.4692 72.5491 11.4215C72.6445 11.3738 72.7435 11.35 72.8461 11.35C72.9818 11.35 73.0845 11.3995 73.1541 11.4985L73.6491 12.109C73.4731 12.3107 73.2825 12.4757 73.0771 12.604C72.8755 12.7287 72.6665 12.8277 72.4501 12.901C72.2375 12.9707 72.023 13.0183 71.8066 13.044C71.594 13.0733 71.3905 13.088 71.1961 13.088C70.7965 13.088 70.4206 13.0238 70.0686 12.8955C69.7203 12.7635 69.4141 12.5692 69.1501 12.3125C68.8898 12.0558 68.6826 11.7368 68.5286 11.3555C68.3783 10.9742 68.3031 10.5305 68.3031 10.0245C68.3031 9.64317 68.3673 9.282 68.4956 8.941C68.6276 8.6 68.8146 8.30117 69.0566 8.0445C69.3023 7.78783 69.5975 7.58433 69.9421 7.434C70.2905 7.28367 70.6828 7.2085 71.1191 7.2085C71.4968 7.2085 71.8415 7.26717 72.1531 7.3845C72.4685 7.50183 72.738 7.67233 72.9616 7.896C73.189 8.11967 73.365 8.39467 73.4896 8.721C73.618 9.04367 73.6821 9.41033 73.6821 9.821C73.6821 9.94933 73.6766 10.0538 73.6656 10.1345C73.6546 10.2152 73.6345 10.2793 73.6051 10.327C73.5758 10.3747 73.5355 10.4077 73.4841 10.426C73.4365 10.4443 73.3741 10.4535 73.2971 10.4535H70.0081ZM75.8803 8.1765C76.0563 7.8685 76.258 7.6265 76.4853 7.4505C76.7163 7.2745 76.9803 7.1865 77.2773 7.1865C77.534 7.1865 77.743 7.247 77.9043 7.368L77.7943 8.622C77.776 8.70267 77.7448 8.75767 77.7008 8.787C77.6605 8.81633 77.6036 8.831 77.5303 8.831C77.501 8.831 77.4625 8.82917 77.4148 8.8255C77.3671 8.82183 77.3176 8.81817 77.2663 8.8145C77.215 8.80717 77.1618 8.80167 77.1068 8.798C77.0555 8.79067 77.0078 8.787 76.9638 8.787C76.7145 8.787 76.5146 8.853 76.3643 8.985C76.2176 9.117 76.093 9.30033 75.9903 9.535V13H74.2853V7.2965H75.2973C75.3816 7.2965 75.4513 7.30383 75.5063 7.3185C75.565 7.33317 75.6126 7.357 75.6493 7.39C75.6896 7.41933 75.719 7.45967 75.7373 7.511C75.7593 7.56233 75.7776 7.62467 75.7923 7.698L75.8803 8.1765Z" fill="white"/>
</svg>
